<svg xmlns="http://www.w3.org/2000/svg" viewBox="-24 -24 51 51"><rect x="-24" y="-24" width="51" height="51" rx="8" fill="#0d1c17"/><g fill="none" stroke="#0a0f0d" stroke-linejoin="round" stroke-linecap="round"><polyline points="14.4,-8.3 14.4,8.3 0.0,16.6 -14.4,8.3 -14.4,-8.3 0.0,-16.6" fill="none" stroke-width="5.1" opacity="0.92"/><path d="M0.0,0.0L14.4,-8.3M0.0,0.0L0.0,16.6M0.0,0.0L-14.4,-8.3" stroke-width="5.1" opacity="0.78"/><path d="M0.0,-16.6L2.7,-8.0M2.7,-8.0L14.4,-8.3" stroke-width="5.1" opacity="0.92"/><path d="M2.7,-8.0L10.3,-15.4M10.3,-15.4L21.1,-18.1" stroke-width="5.1" opacity="0.9"/></g><g fill="none" stroke="#5ef2d0" stroke-linejoin="round" stroke-linecap="round"><polyline points="14.4,-8.3 14.4,8.3 0.0,16.6 -14.4,8.3 -14.4,-8.3 0.0,-16.6" fill="none" stroke-width="3.1" opacity="0.92"/><path d="M0.0,0.0L14.4,-8.3M0.0,0.0L0.0,16.6M0.0,0.0L-14.4,-8.3" stroke-width="3.1" opacity="0.78"/><path d="M0.0,-16.6L2.7,-8.0M2.7,-8.0L14.4,-8.3" stroke-width="3.1" opacity="0.92"/><path d="M2.7,-8.0L10.3,-15.4M10.3,-15.4L21.1,-18.1" stroke-width="3.1" opacity="0.9"/></g><circle cx="2.7" cy="-8.0" r="3.6" fill="#ffd166" stroke="#0a0f0d" stroke-width="1.3"/><circle cx="10.3" cy="-15.4" r="2.1" fill="#ffd166" stroke="#0a0f0d" stroke-width="1.3"/><circle cx="21.1" cy="-18.1" r="2.7" fill="#ffd166" stroke="#0a0f0d" stroke-width="1.3"/></svg>
